HIERARCHY
ROOT Hips
{
	OFFSET -3.958830 18.904000 13.208200
	CHANNELS 6 Xposition Yposition Zposition Zrotation Yrotation Xrotation 
	JOINT LHipJoint
	{
		OFFSET 0.000000 0.000000 0.000000
		CHANNELS 3 Zrotation Yrotation Xrotation
		JOINT LeftUpLeg
		{
			OFFSET 1.800000 -1.400000 0.085000
			CHANNELS 3 Zrotation Yrotation Xrotation
			JOINT LeftLeg
			{
				OFFSET 2.215000 -6.000000 0.000000
				CHANNELS 3 Zrotation Yrotation Xrotation
				JOINT LeftFoot
				{
					OFFSET 2.500000 -6.900000 0.000000
					CHANNELS 3 Zrotation Yrotation Xrotation
					JOINT LeftToeBase
					{
						OFFSET 0.200000 -0.500000 1.950000
						CHANNELS 3 Zrotation Yrotation Xrotation
						End Site
						{
							OFFSET 0.000000 0.000000 0.000000
						}
					}
				}
			}
		}
	}
	JOINT RHipJoint
	{
		OFFSET 0.000000 0.000000 0.000000
		CHANNELS 3 Zrotation Yrotation Xrotation
		JOINT RightUpLeg
		{
			OFFSET -1.800000 -1.400000 0.085000
			CHANNELS 3 Zrotation Yrotation Xrotation
			JOINT RightLeg
			{
				OFFSET -2.215000 -6.000000 0.000000
				CHANNELS 3 Zrotation Yrotation Xrotation
				JOINT RightFoot
				{
					OFFSET -2.500000 -6.900000 0.000000
					CHANNELS 3 Zrotation Yrotation Xrotation
					JOINT RightToeBase
					{
						OFFSET -0.200000 -0.500000 1.950000
						CHANNELS 3 Zrotation Yrotation Xrotation
						End Site
						{
							OFFSET 0.000000 0.000000 0.000000
						}
					}
				}
			}
		}
	}
	JOINT LowerBack
	{
		OFFSET 0.000000 0.000000 0.000000
		CHANNELS 3 Zrotation Yrotation Xrotation
		JOINT Spine
		{
			OFFSET -0.087000 1.940000 -0.288900
			CHANNELS 3 Zrotation Yrotation Xrotation
			JOINT Spine1
			{
				OFFSET 0.000000 1.950000 0.060000
				CHANNELS 3 Zrotation Yrotation Xrotation
				JOINT Neck
				{
					OFFSET 0.000000 0.000000 0.000000
					CHANNELS 3 Zrotation Yrotation Xrotation
					JOINT Neck1
					{
						OFFSET 0.000000 1.600000 0.340000
						CHANNELS 3 Zrotation Yrotation Xrotation
						JOINT Head
						{
							OFFSET 0.000000 1.667000 -0.240000
							CHANNELS 3 Zrotation Yrotation Xrotation
							End Site
							{
								OFFSET 0.000000 0.000000 0.000000
							}
						}
					}
				}
				JOINT LeftShoulder
				{
					OFFSET 0.000000 0.000000 0.000000
					CHANNELS 3 Zrotation Yrotation Xrotation
					JOINT LeftArm
					{
						OFFSET 2.700000 1.550000 -0.730000
						CHANNELS 3 Zrotation Yrotation Xrotation
						JOINT LeftForeArm
						{
							OFFSET 5.450000 0.000000 0.000000
							CHANNELS 3 Zrotation Yrotation Xrotation
							JOINT LeftHand
							{
								OFFSET 3.450000 0.000000 0.000000
								CHANNELS 3 Zrotation Yrotation Xrotation
								JOINT LeftHandIndex1
								{
									OFFSET 0.750000 0.000000 0.000000
									CHANNELS 3 Zrotation Yrotation Xrotation
									End Site
									{
										OFFSET 0.000000 0.000000 0.000000
									}
								}
							}
						}
					}
				}
				JOINT RightShoulder
				{
					OFFSET 0.000000 0.000000 0.000000
					CHANNELS 3 Zrotation Yrotation Xrotation
					JOINT RightArm
					{
						OFFSET -2.700000 1.550000 -0.730000
						CHANNELS 3 Zrotation Yrotation Xrotation
						JOINT RightForeArm
						{
							OFFSET -5.450000 0.000000 0.000000
							CHANNELS 3 Zrotation Yrotation Xrotation
							JOINT RightHand
							{
								OFFSET -3.450000 0.000000 0.000000
								CHANNELS 3 Zrotation Yrotation Xrotation
								JOINT RightHandIndex1
								{
									OFFSET -0.750000 0.000000 0.000000
									CHANNELS 3 Zrotation Yrotation Xrotation
									End Site
									{
										OFFSET 0.000000 0.000000 0.000000
									}
								}
							}
						}
					}
				}
			}
		}
	}
}
MOTION
Frames: 14
Frame Time: 0.016667
0.038150 17.760430 -3.208500 -1.207324 -3.087917 2.350740 -15.106613 13.435910 2.809139 7.608997 -1.262837 -13.549549 -4.449973 4.414668 7.069447 -0.140459 3.384620 3.460412 -0.165790 -0.203220 -0.192160 18.254150 -11.109725 2.508599 -6.982647 0.733565 -13.610505 3.925967 -3.971763 11.704162 0.175285 -3.145910 3.311519 -0.018290 0.398260 0.052820 -3.584926 -1.634654 -6.953902 6.246393 0.109443 4.073935 -1.130954 0.246614 6.806313 0.813118 -3.479229 -9.012451 -8.882766 5.718493 38.050948 -0.875140 3.764090 7.121090 -24.549907 -13.288382 4.432820 -50.656128 -12.410403 2.765949 -19.458361 -12.367281 1.336052 -4.041174 3.127444 -0.129180 0.296710 -0.261130 0.051580 23.342395 16.333341 5.767958 49.016960 12.328200 0.177446 17.747764 16.354272 1.151289 2.597421 -1.411700 -0.161350 0.092370 0.151960 0.047750 
0.039380 17.760980 -3.204750 -1.186652 -3.117877 2.293038 -15.105677 13.435576 2.812714 7.599845 -1.245927 -13.394943 -4.500273 4.410779 6.932223 -0.141059 3.392026 3.458911 -0.160780 -0.196010 -0.191530 18.255763 -11.108038 2.501257 -7.058583 0.725537 -13.595626 4.020938 -4.013598 11.845487 0.172020 -3.159226 3.306395 -0.012830 0.397760 0.050450 -3.588763 -1.643149 -6.950591 6.292288 0.073611 4.055221 -1.129611 0.211341 6.883453 0.774255 -3.556047 -9.024529 -9.054503 5.812242 38.123649 -0.786030 3.743740 7.009590 -24.456914 -13.349028 4.442722 -50.641643 -12.631485 2.892567 -19.437364 -12.502206 1.366701 -4.038404 3.126319 -0.126980 0.294670 -0.260000 0.053810 23.322537 16.432977 5.769009 48.958116 12.562707 0.323279 17.945771 16.367453 1.189873 2.595922 -1.411925 -0.162360 0.096310 0.150330 0.047950 
0.038300 17.763020 -3.197950 -1.123529 -3.272959 2.179631 -15.104383 13.437147 2.813344 7.587705 -1.214863 -13.163708 -4.548002 4.412463 6.818393 -0.134492 3.396441 3.457462 -0.146500 -0.176940 -0.186570 18.257504 -11.104348 2.498588 -7.173670 0.690873 -13.440256 4.115449 -4.034660 11.771092 0.161994 -3.171021 3.303244 -0.004300 0.391820 0.048710 -3.591560 -1.656504 -6.950806 6.316078 0.035081 4.022715 -1.110867 0.171638 7.018703 0.709752 -3.693479 -9.113575 -9.377887 6.012545 38.379129 -0.588920 3.732980 6.859150 -24.330645 -13.576469 4.540014 -50.544106 -12.888573 3.036463 -19.438313 -12.807573 1.428781 -4.025714 3.130499 -0.123920 0.287670 -0.252790 0.060210 23.330004 16.758610 5.814404 48.881000 13.021966 0.621895 18.172133 16.273160 1.238623 2.597909 -1.414524 -0.157090 0.098110 0.141360 0.050580 
0.041350 17.764480 -3.195070 -1.125968 -3.524908 2.126954 -15.094556 13.420010 2.802488 7.575638 -1.187822 -13.004013 -4.538475 4.410289 6.791980 -0.123541 3.384140 3.460478 -0.130880 -0.151850 -0.177780 18.269117 -11.109918 2.508725 -7.243433 0.651839 -13.266433 4.230931 -4.030150 11.460778 0.151213 -3.179766 3.301712 0.005340 0.381210 0.047560 -3.620178 -1.611275 -6.947915 6.484005 0.086050 3.932305 -1.168000 0.207637 7.286214 0.719515 -3.625493 -9.221735 -9.263321 6.023635 38.636234 -0.574000 3.809480 6.754290 -24.000024 -13.968767 4.687933 -50.431348 -13.403535 3.266480 -19.643606 -13.387917 1.571821 -4.013202 3.139999 -0.128470 0.282750 -0.243660 0.065770 22.975036 17.118767 5.858602 49.071215 13.712830 1.029633 18.233478 16.362924 1.287476 2.602653 -1.422777 -0.146550 0.094650 0.126950 0.054290 
0.044080 17.768420 -3.194670 -1.122738 -3.799756 2.093919 -15.089173 13.398635 2.786379 7.571114 -1.170083 -12.933469 -4.522499 4.415948 6.852918 -0.117221 3.376931 3.460614 -0.120260 -0.135890 -0.172020 18.276697 -11.098140 2.538412 -7.420445 0.586970 -12.862241 4.498840 -4.001829 10.566288 0.137909 -3.195331 3.300615 0.010910 0.374150 0.049970 -3.637092 -1.580792 -6.959554 6.574887 0.184620 3.849297 -1.143482 0.287806 7.562502 0.731969 -3.583403 -9.395418 -9.238242 6.041970 39.037326 -0.627760 3.876180 6.740630 -23.863246 -14.581442 4.879906 -50.211118 -14.023965 3.576080 -19.615468 -13.933845 1.695450 -4.005421 3.145874 -0.130750 0.280850 -0.236390 0.069580 22.827458 17.735942 5.987924 48.917957 14.478600 1.522584 18.290368 16.335612 1.344723 2.604584 -1.426471 -0.138190 0.091100 0.118520 0.056490 
0.046930 17.772760 -3.196450 -1.085588 -3.879197 1.974672 -15.086392 13.391461 2.772499 7.529776 -1.157721 -12.932116 -4.479192 4.435850 7.081951 -0.118137 3.366532 3.457425 -0.104450 -0.113770 -0.159730 18.277952 -11.099267 2.560844 -7.601996 0.529577 -12.517418 4.686217 -3.995445 10.006431 0.122222 -3.214063 3.294012 0.021040 0.360610 0.051230 -3.642697 -1.556784 -6.974725 6.576485 0.267325 3.884296 -1.106765 0.362918 7.821871 0.760858 -3.464232 -9.527736 -9.084007 5.972726 39.565822 -0.695540 3.896210 6.497820 -23.920557 -15.232789 5.017722 -49.861223 -14.801358 3.957373 -19.470907 -14.380358 1.804267 -3.996024 3.146154 -0.128370 0.274650 -0.224420 0.070870 22.845667 18.340837 6.083385 48.662404 15.316807 2.052648 18.051738 16.205832 1.366199 2.606261 -1.422978 -0.129830 0.089660 0.109180 0.055580 
0.051660 17.777390 -3.199180 -1.078052 -3.873200 1.850052 -15.083732 13.394075 2.764885 7.468253 -1.140269 -12.875761 -4.380864 4.434649 7.219825 -0.120973 3.350626 3.456832 -0.090670 -0.093210 -0.146020 18.277808 -11.106584 2.575639 -7.671773 0.488929 -12.286962 4.725842 -3.982902 9.725857 0.110461 -3.220212 3.290885 0.030820 0.345530 0.048370 -3.646489 -1.543115 -6.993118 6.617284 0.322534 3.963574 -1.008056 0.405830 8.076907 0.776958 -3.355027 -9.703406 -8.957192 5.904782 40.090614 -0.788600 3.946430 6.225180 -23.974168 -15.973263 5.188388 -49.529320 -15.591710 4.334425 -19.383225 -14.894285 1.927270 -3.984333 3.142525 -0.124290 0.266720 -0.212560 0.069640 22.888909 19.029425 6.215498 48.370000 16.126247 2.546469 17.585128 16.047586 1.356627 2.608691 -1.414170 -0.124310 0.090660 0.100340 0.052930 
0.054740 17.782320 -3.200830 -1.081349 -3.720396 1.737369 -15.082740 13.390003 2.760080 7.440134 -1.130022 -12.831034 -4.276131 4.411677 7.220957 -0.119298 3.338805 3.461946 -0.084060 -0.086780 -0.136770 18.277257 -11.116002 2.586622 -7.676208 0.451034 -12.042043 4.758046 -3.985506 9.558673 0.102273 -3.237951 3.285168 0.033010 0.339960 0.051020 -3.649134 -1.519119 -7.009549 6.627259 0.368804 3.970948 -0.826824 0.421379 8.387891 0.771272 -3.233370 -9.922981 -8.801060 5.641615 40.537561 -1.006040 3.815780 6.274370 -23.900329 -16.793285 5.426006 -49.302836 -16.375316 4.675399 -19.344522 -15.706316 2.090006 -3.976866 3.143768 -0.125400 0.265740 -0.207210 0.070970 22.860058 19.802270 6.382829 48.026260 16.980836 3.070757 17.036423 15.899304 1.341088 2.612332 -1.410002 -0.119850 0.088610 0.093420 0.053160 
0.058880 17.786170 -3.202030 -1.081916 -3.351340 1.571543 -15.081178 13.396349 2.762215 7.402950 -1.122380 -12.783669 -4.216737 4.402392 7.245271 -0.124198 3.338068 3.462989 -0.080000 -0.084790 -0.129830 18.275634 -11.135227 2.579880 -7.680415 0.418499 -11.895477 4.691916 -4.020192 9.797041 0.097913 -3.257535 3.276977 0.035360 0.337570 0.052930 -3.653624 -1.507965 -7.020164 6.657554 0.316641 4.005950 -0.761214 0.351840 8.735732 0.779008 -3.073916 -10.134715 -8.567347 5.414355 40.993825 -1.174180 3.706780 6.303960 -23.716898 -17.636685 5.645184 -48.988224 -17.268877 5.090875 -19.338542 -16.372447 2.240407 -3.973950 3.142352 -0.123880 0.266370 -0.205210 0.070510 22.681621 20.527279 6.530284 47.833236 17.913306 3.574333 16.416059 16.047909 1.343956 2.610026 -1.403902 -0.119790 0.089320 0.091650 0.050830 
0.064040 17.789410 -3.202070 -1.067181 -2.815220 1.381495 -15.085672 13.411351 2.763739 7.306151 -1.102701 -12.587153 -4.027470 4.351055 7.125931 -0.130674 3.330791 3.465871 -0.077930 -0.082030 -0.127740 18.269233 -11.145733 2.570319 -7.704271 0.393694 -11.837085 4.607995 -4.042780 10.030840 0.097243 -3.269152 3.268984 0.039630 0.336010 0.054190 -3.645710 -1.524226 -7.029384 6.628324 0.224116 4.041219 -0.653888 0.239333 9.107089 0.773716 -2.925446 -10.335274 -8.372637 5.214317 41.424767 -1.278230 3.573570 6.317730 -23.512632 -18.486465 5.822505 -48.711666 -18.388625 5.653121 -18.990856 -16.850079 2.336249 -3.974380 3.139500 -0.124330 0.267490 -0.204920 0.068580 22.511204 21.233829 6.685281 47.409953 18.792974 4.043050 16.022328 16.316849 1.380482 2.606252 -1.398489 -0.120060 0.089670 0.093110 0.049580 
0.069510 17.792280 -3.202250 -1.023348 -2.276543 1.174437 -15.088544 13.432587 2.781721 7.257361 -1.085626 -12.363959 -4.006511 4.324402 6.923547 -0.133639 3.338846 3.464059 -0.073270 -0.078230 -0.126510 18.261258 -11.165683 2.540587 -7.779930 0.392772 -11.981367 4.478807 -4.112783 10.774683 0.098970 -3.283542 3.257926 0.043630 0.336080 0.057310 -3.637686 -1.548636 -7.039359 6.609163 0.086036 4.130079 -0.698781 0.111717 9.461027 0.799058 -2.822063 -10.560941 -8.252736 5.150426 41.823812 -1.271980 3.488700 6.368400 -23.293758 -19.329531 6.014990 -48.295836 -19.399301 6.122338 -18.430857 -17.350784 2.392373 -3.971831 3.140246 -0.123570 0.268390 -0.205080 0.069620 22.252001 21.964274 6.841693 46.935163 19.701729 4.504683 15.864930 16.741720 1.460930 2.600819 -1.396776 -0.119420 0.088460 0.093680 0.049070 
0.073260 17.797440 -3.205320 -1.018454 -1.927969 0.993485 -15.087781 13.442264 2.799899 7.276044 -1.066484 -12.158475 -4.124489 4.331020 6.746434 -0.135925 3.357160 3.455325 -0.064640 -0.070460 -0.118040 18.258117 -11.180468 2.520567 -7.788448 0.396621 -12.098400 4.394264 -4.167494 11.357542 0.096967 -3.291181 3.247925 0.049620 0.329110 0.059620 -3.639167 -1.557439 -7.054251 6.645997 -0.022223 4.246028 -0.767373 0.018476 9.816345 0.816859 -2.761515 -10.770981 -8.223169 5.054583 42.276979 -1.331310 3.368840 6.228150 -23.036795 -20.072300 6.191692 -47.816055 -20.307974 6.498016 -17.760170 -17.958238 2.431859 -3.966318 3.135287 -0.119510 0.264760 -0.200220 0.067630 21.965469 22.648772 6.968610 46.588960 20.683299 4.977147 15.409832 17.171854 1.507214 2.595993 -1.389447 -0.117240 0.088250 0.092600 0.046050 
0.075040 17.802010 -3.209750 -1.059898 -1.638103 0.877085 -15.087985 13.427547 2.825611 7.413930 -1.044778 -11.875032 -4.425690 4.338857 6.272318 -0.140752 3.397599 3.444361 -0.058890 -0.065110 -0.113580 18.259714 -11.187018 2.497456 -7.665802 0.406421 -12.222077 4.170815 -4.170570 11.825231 0.099668 -3.288980 3.246829 0.058900 0.331930 0.058900 -3.644904 -1.542608 -7.064881 6.678514 -0.105268 4.320485 -0.836737 -0.057219 10.166849 0.818244 -2.617582 -10.841533 -7.974109 4.840175 42.523079 -1.337830 3.146140 6.014110 -22.823662 -20.620027 6.265534 -47.137351 -21.259354 6.895471 -17.030971 -18.502769 2.458927 -3.970848 3.120129 -0.117340 0.267390 -0.202160 0.066850 21.747323 23.078049 6.980877 46.182899 21.709124 5.475911 15.060607 17.730143 1.574627 2.584896 -1.379243 -0.121870 0.097000 0.094820 0.043200 
0.073830 17.804400 -3.215760 -1.025615 -1.614045 0.792746 -15.093701 13.414552 2.840002 7.436141 -1.035283 -11.724416 -4.645299 4.356899 6.057417 -0.146037 3.423878 3.438066 -0.050300 -0.056110 -0.105200 18.256837 -11.192017 2.483190 -7.556267 0.403277 -12.265736 3.847858 -4.107853 11.959362 0.101692 -3.274440 3.250873 0.069570 0.332980 0.057470 -3.631874 -1.525613 -7.066862 6.519753 -0.068014 4.326226 -0.747010 -0.030428 10.596201 0.790866 -2.483374 -10.963713 -7.720362 4.653352 42.634746 -1.381150 3.027260 5.799830 -22.205871 -21.204364 6.363307 -46.691811 -22.332456 7.357827 -16.292030 -19.143412 2.486616 -3.973292 3.107228 -0.116960 0.269530 -0.203200 0.067480 21.210048 23.589366 7.050399 45.873352 22.729938 5.947872 14.692038 18.475107 1.641216 2.572708 -1.374523 -0.125510 0.104330 0.092540 0.040390 
